# xmcd CD database file
#
# Track frame offsets:
#	150
#	25856
#	41477
#	58138
#	86295
#	98217
#	115208
#	132861
#	150104
#	173018
#	194650
#	225009
#	240898
#	262878
#	268165
#	287601
#	303407
#	319599
#
# Disc length: 4438 seconds
#
# Revision: 0
# Processed by: cddbd v1.5.1PL0 Copyright (c) Steve Scherf et al.
# Submitted via: Feurio! 1.68 - http://www.feurio.com
#
DISCID=da115412
DTITLE=Pcfhremix 11.04 (Pádraig) - Pádraigmixer
DYEAR=1900
DGENRE=loud music
TTITLE0=Republic of Loose - Girl I'm Gonna Fuck You Up
TTITLE1=The Sleepy Jackson - Come to This
TTITLE2=The Radio - Promenade Star
TTITLE3=Morcheeba and Kurt Wagner - What New York Couples Fight About
TTITLE4=Myracle Brah - Think About You
TTITLE5=Snowpatrol - Spitting Games
TTITLE6=Bell X1 - Snakes and Snakes
TTITLE7=Cathal Coughlan - Denial of the Right to Dream
TTITLE8=Future Kings of Spain - Traps
TTITLE9=Matthew Ryan - Return to Me
TTITLE10=Pony Club - Shocks
TTITLE11=Ten Speed Racer - I Just Don't Wanna
TTITLE12=The Frames - Finally
TTITLE13=Howe Gelb - Aiming to Aspire
TTITLE14=The Magnetic Fields - I Thought You Were My Boyfriend
TTITLE15=Calexico - I Send My Love to You
TTITLE16=Sparklehorse - Dark as a Dungeon
TTITLE17=Thea Gilmore - I'm Not Down
EXTD=
EXTT0=
EXTT1=
EXTT2=
EXTT3=
EXTT4=
EXTT5=
EXTT6=
EXTT7=
EXTT8=
EXTT9=
EXTT10=
EXTT11=
EXTT12=
EXTT13=
EXTT14=
EXTT15=
EXTT16=
EXTT17=
PLAYORDER=
